<?xml version="1.0" encoding="utf-8" ?>
<svg xmlns="http://www.w3.org/2000/svg" xmlns:cc="http://creativecommons.org/ns" xmlns:dc="http://purl.org/dc/elements/1.1/" xmlns:ev="http://www.w3.org/2001/xml-events" xmlns:inkscape="http://www.inkscape.org/namespaces/inkscape" xmlns:rdf="http://www.w3.org/1999/02/22-rdf-syntax-ns" xmlns:sodipodi="http://sodipodi.sourceforge.net/DTD/sodipodi-0.dtd" xmlns:xlink="http://www.w3.org/1999/xlink" baseProfile="tiny" height="1.27cm" version="1.2" viewBox="0 0 48.0 48.0" width="1.27cm">
  <metadata>
    <rdf:RDF>
      <cc:Work>
        <dc:format>image/svg+xml</dc:format>
        <dc:source>vpype ellipse 0 0 0.25in 0.25in write 0_5in_radius_circle.svg
</dc:source>
        <dc:date>2025-12-14T11:08:19.878027</dc:date>
      </cc:Work>
    </rdf:RDF>
  </metadata>
  <defs/>
  <g fill="none" id="layer1" inkscape:groupmode="layer" inkscape:label="1" stroke="#0000ff" style="display:inline">
    <polygon points="48.0,24.0 47.7045,20.2456 46.8254,16.5836 45.3842,13.1042 43.4164,9.8932 40.9706,7.0294 38.1068,4.5836 34.8958,2.6158 31.4164,1.1746 27.7544,0.2955 24.0,0.0 20.2456,0.2955 16.5836,1.1746 13.1042,2.6158 9.8932,4.5836 7.0294,7.0294 4.5836,9.8932 2.6158,13.1042 1.1746,16.5836 0.2955,20.2456 0.0,24.0 0.2955,27.7544 1.1746,31.4164 2.6158,34.8958 4.5836,38.1068 7.0294,40.9706 9.8932,43.4164 13.1042,45.3842 16.5836,46.8254 20.2456,47.7045 24.0,48.0 27.7544,47.7045 31.4164,46.8254 34.8958,45.3842 38.1068,43.4164 40.9706,40.9706 43.4164,38.1068 45.3842,34.8958 46.8254,31.4164 47.7045,27.7544"/>
  </g>
</svg>
